<svg xmlns="http://www.w3.org/2000/svg" width="600" height="320" viewBox="0 0 600 320" style="background:#fff;font-family:-apple-system,BlinkMacSystemFont,'SF Pro Display',sans-serif">
  <!-- nodes -->
  <rect x="20" y="130" width="100" height="44" rx="8" style="fill:#f5f5f7;stroke:#d1d1d6;stroke-width:1.5"/>
  <text x="70" y="156" style="font-size:11px;text-anchor:middle;fill:#1c1c1e;font-weight:600">App.jsx</text>

  <rect x="180" y="60" width="110" height="44" rx="8" style="fill:#f5f5f7;stroke:#d1d1d6;stroke-width:1.5"/>
  <text x="235" y="86" style="font-size:11px;text-anchor:middle;fill:#1c1c1e;font-weight:600">Graph.jsx</text>

  <rect x="180" y="200" width="110" height="44" rx="8" style="fill:#f5f5f7;stroke:#d1d1d6;stroke-width:1.5"/>
  <text x="235" y="226" style="font-size:11px;text-anchor:middle;fill:#1c1c1e;font-weight:600">EquationList</text>

  <rect x="360" y="60" width="110" height="44" rx="8" style="fill:#e8f4fd;stroke:#0071e3;stroke-width:1.5"/>
  <text x="415" y="86" style="font-size:11px;text-anchor:middle;fill:#0071e3;font-weight:600">Canvas API</text>

  <rect x="360" y="200" width="110" height="44" rx="8" style="fill:#f5f5f7;stroke:#d1d1d6;stroke-width:1.5"/>
  <text x="415" y="226" style="font-size:11px;text-anchor:middle;fill:#1c1c1e;font-weight:600">evaluate.js</text>

  <rect x="480" y="200" width="100" height="44" rx="8" style="fill:#f5f5f7;stroke:#d1d1d6;stroke-width:1.5"/>
  <text x="530" y="226" style="font-size:11px;text-anchor:middle;fill:#1c1c1e;font-weight:600">mathjs</text>

  <!-- lines -->
  <line x1="120" y1="152" x2="180" y2="82" style="stroke:#8e8e93;stroke-width:1.5"/>
  <line x1="120" y1="152" x2="180" y2="222" style="stroke:#8e8e93;stroke-width:1.5"/>
  <line x1="290" y1="82" x2="360" y2="82" style="stroke:#0071e3;stroke-width:1.5"/>
  <line x1="290" y1="222" x2="360" y2="222" style="stroke:#8e8e93;stroke-width:1.5"/>
  <line x1="470" y1="222" x2="480" y2="222" style="stroke:#8e8e93;stroke-width:1.5"/>
</svg>
