<svg xmlns="http://www.w3.org/2000/svg" width="720" height="380" style="font-family:monospace;background:#f8fafc;border-radius:12px" viewBox="0 0 720 380"><text x="360" y="28" fill="#1e293b" font-size="13" font-weight="bold" text-anchor="middle">roost -- BC Real Estate App</text><rect width="120" height="36" x="300" y="48" fill="#1a5a96" rx="8"/><text x="360" y="70" fill="#fff" font-size="11" font-weight="bold" text-anchor="middle">React + Vite</text><path stroke="#94a3b8" stroke-dasharray="5,3" stroke-width="1.5" d="M320 84 130 130m90-46 80 46m80-46 80 46m30-46 170 46"/><rect width="160" height="50" x="30" y="130" fill="#2472b2" rx="8"/><text x="110" y="152" fill="#fff" font-size="11" font-weight="bold" text-anchor="middle">Auth Pages</text><text x="110" y="168" fill="#dbeafe" font-size="9" text-anchor="middle">Login / Register / Forgot PW</text><rect width="160" height="50" x="210" y="130" fill="#2472b2" rx="8"/><text x="290" y="152" fill="#fff" font-size="11" font-weight="bold" text-anchor="middle">Listings + Map</text><text x="290" y="168" fill="#dbeafe" font-size="9" text-anchor="middle">Leaflet + Filter Bar</text><rect width="160" height="50" x="390" y="130" fill="#2472b2" rx="8"/><text x="470" y="152" fill="#fff" font-size="11" font-weight="bold" text-anchor="middle">Detail View</text><text x="470" y="168" fill="#dbeafe" font-size="9" text-anchor="middle">Photos + Stats + Features</text><rect width="160" height="50" x="530" y="130" fill="#2472b2" rx="8"/><text x="610" y="152" fill="#fff" font-size="11" font-weight="bold" text-anchor="middle">Settings</text><text x="610" y="168" fill="#dbeafe" font-size="9" text-anchor="middle">Profile + Preferences</text><path stroke="#94a3b8" stroke-dasharray="5,3" stroke-width="1.5" d="M200 220h320"/><rect width="160" height="50" x="100" y="230" fill="#16a34a" rx="8"/><text x="180" y="252" fill="#fff" font-size="11" font-weight="bold" text-anchor="middle">AuthContext</text><text x="180" y="268" fill="#dcfce7" font-size="9" text-anchor="middle">localStorage auth</text><rect width="160" height="50" x="280" y="230" fill="#16a34a" rx="8"/><text x="360" y="252" fill="#fff" font-size="11" font-weight="bold" text-anchor="middle">FavoritesContext</text><text x="360" y="268" fill="#dcfce7" font-size="9" text-anchor="middle">localStorage sync</text><rect width="160" height="50" x="460" y="230" fill="#16a34a" rx="8"/><text x="540" y="252" fill="#fff" font-size="11" font-weight="bold" text-anchor="middle">FiltersContext</text><text x="540" y="268" fill="#dcfce7" font-size="9" text-anchor="middle">Price / Beds / Type / Sort</text><rect width="600" height="36" x="60" y="310" fill="#f1f5f9" stroke="#e2e8f0" rx="8"/><text x="360" y="332" fill="#475569" font-size="9" text-anchor="middle">React Router | Leaflet Maps | CARTO Dark Tiles | PWA (vite-plugin-pwa) | 50 Mock BC Listings</text></svg>