<svg xmlns="http://www.w3.org/2000/svg" width="200" height="200" viewBox="0 0 200 200"><rect width="200" height="200" rx="24" style="fill:#0a0a0a"/><path d="M20 0v200M100 0v200M180 0v200M0 20h200M0 100h200M0 180h200" style="stroke:rgba(255,255,255,.04);stroke-width:1"/><ellipse cx="100" cy="158" rx="18" ry="6" style="fill:rgba(0,0,0,.4)"/><path d="M100 30c-26 0-46 20-46 46 0 32 46 79 46 79s46-47 46-79c0-26-20-46-46-46Z" style="fill:#036;stroke:rgba(255,255,255,.12);stroke-width:1.5"/><path d="M100 34c-24 0-42 18-42 42 0 30 42 74 42 74s42-44 42-74c0-24-18-42-42-42Z" style="fill:none;stroke:rgba(255,255,255,.07);stroke-width:1"/><path d="M100 52 80 70h40z" style="fill:#e0e0e0"/><rect width="34" height="24" x="83" y="70" rx="2" style="fill:#e0e0e0"/><rect width="14" height="12" x="93" y="82" rx="2" style="fill:#036"/><rect width="8" height="7" x="85" y="73" rx="1" style="fill:#036"/><rect width="8" height="7" x="107" y="73" rx="1" style="fill:#036"/><circle cx="26" cy="26" r="3" style="fill:#036;opacity:.7"/><circle cx="174" cy="26" r="3" style="fill:#036;opacity:.7"/><circle cx="26" cy="174" r="3" style="fill:#036;opacity:.7"/><circle cx="174" cy="174" r="3" style="fill:#036;opacity:.7"/></svg>